<svg width="18" height="18" viewBox="0 0 18 18" fill="none" xmlns="http://www.w3.org/2000/svg">
<path fill-rule="evenodd" clip-rule="evenodd" d="M2.25002 8.4375C2.25002 4.70958 5.2721 1.6875 9.00002 1.6875C12.7279 1.6875 15.75 4.70958 15.75 8.4375C15.75 12.1654 12.7279 15.1875 9.00002 15.1875C7.98388 15.1875 6.99948 14.9623 6.10374 14.5362L5.89727 14.4332L2.94896 15.1707C2.55761 15.2685 2.20126 14.9367 2.25488 14.5501L2.26681 14.4886L3.00321 11.5391C2.54624 10.6569 2.2885 9.68216 2.25401 8.67137L2.25002 8.4375ZM14.625 8.4375C14.625 5.3309 12.1066 2.8125 9.00002 2.8125C5.89342 2.8125 3.37502 5.3309 3.37502 8.4375C3.37502 9.41548 3.62443 10.3559 4.09271 11.1891C4.16309 11.3143 4.1829 11.4617 4.14807 11.6011L3.5854 13.8516L5.83603 13.2893C5.95218 13.2602 6.07393 13.2691 6.18376 13.3137L6.24809 13.3446C7.08135 13.813 8.02191 14.0625 9.00002 14.0625C12.1066 14.0625 14.625 11.5441 14.625 8.4375Z" fill="#696969" style="fill:#696969;fill:color(display-p3 0.4125 0.4125 0.4125);fill-opacity:1;"/>
<path d="M6.1875 10.125C5.87684 10.125 5.625 9.87316 5.625 9.5625C5.625 9.27403 5.84215 9.03628 6.1219 9.00378L6.1875 9H9.5625C9.87316 9 10.125 9.25184 10.125 9.5625C10.125 9.85097 9.90785 10.0887 9.6281 10.1212L9.5625 10.125H6.1875Z" fill="#696969" style="fill:#696969;fill:color(display-p3 0.4125 0.4125 0.4125);fill-opacity:1;"/>
<path d="M6.1875 7.875C5.87684 7.875 5.625 7.62316 5.625 7.3125C5.625 7.02403 5.84215 6.78628 6.1219 6.75378L6.1875 6.75L11.8125 6.75C12.1232 6.75 12.375 7.00184 12.375 7.3125C12.375 7.60097 12.1579 7.83872 11.8781 7.87122L11.8125 7.875H6.1875Z" fill="#696969" style="fill:#696969;fill:color(display-p3 0.4125 0.4125 0.4125);fill-opacity:1;"/>
</svg>
