<svg width="296" height="56" viewBox="0 0 296 56" fill="none" xmlns="http://www.w3.org/2000/svg">
<path d="M287.555 36.9922C287.555 36.5078 287.414 36.0703 287.133 35.6797C286.852 35.2891 286.328 34.9297 285.563 34.6016C284.813 34.2578 283.727 33.9453 282.305 33.6641C281.023 33.3828 279.828 33.0312 278.719 32.6094C277.625 32.1719 276.672 31.6484 275.859 31.0391C275.063 30.4297 274.438 29.7109 273.984 28.8828C273.531 28.0391 273.305 27.0781 273.305 26C273.305 24.9375 273.531 23.9375 273.984 23C274.453 22.0625 275.117 21.2344 275.977 20.5156C276.852 19.7812 277.914 19.2109 279.164 18.8047C280.43 18.3828 281.852 18.1719 283.43 18.1719C285.633 18.1719 287.523 18.5234 289.102 19.2266C290.695 19.9297 291.914 20.8984 292.758 22.1328C293.617 23.3516 294.047 24.7422 294.047 26.3047L287.297 26.3047C287.297 25.6484 287.156 25.0625 286.875 24.5469C286.609 24.0156 286.188 23.6016 285.609 23.3047C285.047 22.9922 284.313 22.8359 283.406 22.8359C282.656 22.8359 282.008 22.9687 281.461 23.2344C280.914 23.4844 280.492 23.8281 280.195 24.2656C279.914 24.6875 279.773 25.1562 279.773 25.6719C279.773 26.0625 279.852 26.4141 280.008 26.7266C280.18 27.0234 280.453 27.2969 280.828 27.5469C281.203 27.7969 281.688 28.0312 282.281 28.25C282.891 28.4531 283.641 28.6406 284.531 28.8125C286.359 29.1875 287.992 29.6797 289.43 30.2891C290.867 30.8828 292.008 31.6953 292.852 32.7266C293.695 33.7422 294.117 35.0781 294.117 36.7344C294.117 37.8594 293.867 38.8906 293.367 39.8281C292.867 40.7656 292.148 41.5859 291.211 42.2891C290.273 42.9766 289.148 43.5156 287.836 43.9062C286.539 44.2812 285.078 44.4687 283.453 44.4687C281.094 44.4687 279.094 44.0469 277.453 43.2031C275.828 42.3594 274.594 41.2891 273.75 39.9922C272.922 38.6797 272.508 37.3359 272.508 35.9609L278.906 35.9609C278.938 36.8828 279.172 37.625 279.609 38.1875C280.063 38.75 280.633 39.1562 281.32 39.4062C282.023 39.6562 282.781 39.7812 283.594 39.7812C284.469 39.7812 285.195 39.6641 285.773 39.4297C286.352 39.1797 286.789 38.8516 287.086 38.4453C287.398 38.0234 287.555 37.5391 287.555 36.9922Z" fill="#717171" style="fill:#717171;fill:color(display-p3 0.4417 0.4417 0.4417);fill-opacity:1;"/>
<path d="M259.289 39.1953C260.117 39.1953 260.852 39.0391 261.492 38.7266C262.133 38.3984 262.633 37.9453 262.992 37.3672C263.367 36.7734 263.563 36.0781 263.578 35.2812L269.93 35.2812C269.914 37.0625 269.438 38.6484 268.5 40.0391C267.563 41.4141 266.305 42.5 264.727 43.2969C263.148 44.0781 261.383 44.4687 259.43 44.4687C257.461 44.4687 255.742 44.1406 254.273 43.4844C252.82 42.8281 251.609 41.9219 250.641 40.7656C249.672 39.5937 248.945 38.2344 248.461 36.6875C247.977 35.125 247.734 33.4531 247.734 31.6719L247.734 30.9922C247.734 29.1953 247.977 27.5234 248.461 25.9766C248.945 24.4141 249.672 23.0547 250.641 21.8984C251.609 20.7266 252.82 19.8125 254.273 19.1562C255.727 18.5 257.43 18.1719 259.383 18.1719C261.461 18.1719 263.281 18.5703 264.844 19.3672C266.422 20.1641 267.656 21.3047 268.547 22.7891C269.453 24.2578 269.914 26 269.93 28.0156L263.578 28.0156C263.563 27.1719 263.383 26.4062 263.039 25.7187C262.711 25.0312 262.227 24.4844 261.586 24.0781C260.961 23.6562 260.188 23.4453 259.266 23.4453C258.281 23.4453 257.477 23.6562 256.852 24.0781C256.227 24.4844 255.742 25.0469 255.398 25.7656C255.055 26.4687 254.813 27.2734 254.672 28.1797C254.547 29.0703 254.484 30.0078 254.484 30.9922L254.484 31.6719C254.484 32.6562 254.547 33.6016 254.672 34.5078C254.797 35.4141 255.031 36.2187 255.375 36.9219C255.734 37.625 256.227 38.1797 256.852 38.5859C257.477 38.9922 258.289 39.1953 259.289 39.1953Z" fill="#717171" style="fill:#717171;fill:color(display-p3 0.4417 0.4417 0.4417);fill-opacity:1;"/>
<path d="M243.234 18.6406L243.234 44L236.461 44L236.461 18.6406L243.234 18.6406ZM236.039 12.0312C236.039 11.0469 236.383 10.2344 237.07 9.59375C237.758 8.95312 238.68 8.63281 239.836 8.63281C240.977 8.63281 241.891 8.95312 242.578 9.59375C243.281 10.2344 243.633 11.0469 243.633 12.0312C243.633 13.0156 243.281 13.8281 242.578 14.4687C241.891 15.1094 240.977 15.4297 239.836 15.4297C238.68 15.4297 237.758 15.1094 237.07 14.4687C236.383 13.8281 236.039 13.0156 236.039 12.0312Z" fill="#717171" style="fill:#717171;fill:color(display-p3 0.4417 0.4417 0.4417);fill-opacity:1;"/>
<path d="M232.266 18.6406L232.266 23.4219L217.5 23.4219L217.5 18.6406L232.266 18.6406ZM221.156 12.3828L227.906 12.3828L227.906 36.3594C227.906 37.0937 228 37.6562 228.188 38.0469C228.391 38.4375 228.688 38.7109 229.078 38.8672C229.469 39.0078 229.961 39.0781 230.555 39.0781C230.977 39.0781 231.352 39.0625 231.68 39.0312C232.023 38.9844 232.313 38.9375 232.547 38.8906L232.57 43.8594C231.992 44.0469 231.367 44.1953 230.695 44.3047C230.023 44.4141 229.281 44.4687 228.469 44.4687C226.984 44.4687 225.688 44.2266 224.578 43.7422C223.484 43.2422 222.641 42.4453 222.047 41.3516C221.453 40.2578 221.156 38.8203 221.156 37.0391L221.156 12.3828Z" fill="#717171" style="fill:#717171;fill:color(display-p3 0.4417 0.4417 0.4417);fill-opacity:1;"/>
<path d="M203.18 41.1406L209.906 18.6406L217.148 18.6406L206.953 47.8203C206.734 48.4609 206.438 49.1484 206.063 49.8828C205.703 50.6172 205.211 51.3125 204.586 51.9687C203.977 52.6406 203.203 53.1875 202.266 53.6094C201.344 54.0312 200.211 54.2422 198.867 54.2422C198.227 54.2422 197.703 54.2031 197.297 54.125C196.891 54.0469 196.406 53.9375 195.844 53.7969L195.844 48.8516C196.016 48.8516 196.195 48.8516 196.383 48.8516C196.57 48.8672 196.75 48.875 196.922 48.875C197.813 48.875 198.539 48.7734 199.102 48.5703C199.664 48.3672 200.117 48.0547 200.461 47.6328C200.805 47.2266 201.078 46.6953 201.281 46.0391L203.18 41.1406ZM200.367 18.6406L205.875 37.0156L206.836 44.1641L202.242 44.6562L193.125 18.6406L200.367 18.6406Z" fill="#717171" style="fill:#717171;fill:color(display-p3 0.4417 0.4417 0.4417);fill-opacity:1;"/>
<path d="M190.078 8L190.078 44L183.305 44L183.305 8L190.078 8Z" fill="#717171" style="fill:#717171;fill:color(display-p3 0.4417 0.4417 0.4417);fill-opacity:1;"/>
<path d="M170.953 38.2812L170.953 26.9844C170.953 26.1719 170.82 25.4766 170.555 24.8984C170.289 24.3047 169.875 23.8437 169.313 23.5156C168.766 23.1875 168.055 23.0234 167.18 23.0234C166.43 23.0234 165.781 23.1562 165.234 23.4219C164.688 23.6719 164.266 24.0391 163.969 24.5234C163.672 24.9922 163.523 25.5469 163.523 26.1875L156.773 26.1875C156.773 25.1094 157.023 24.0859 157.523 23.1172C158.023 22.1484 158.75 21.2969 159.703 20.5625C160.656 19.8125 161.789 19.2266 163.102 18.8047C164.43 18.3828 165.914 18.1719 167.555 18.1719C169.523 18.1719 171.273 18.5 172.805 19.1562C174.336 19.8125 175.539 20.7969 176.414 22.1094C177.305 23.4219 177.75 25.0625 177.75 27.0312L177.75 37.8828C177.75 39.2734 177.836 40.4141 178.008 41.3047C178.18 42.1797 178.43 42.9453 178.758 43.6016L178.758 44L171.938 44C171.609 43.3125 171.359 42.4531 171.188 41.4219C171.031 40.375 170.953 39.3281 170.953 38.2812ZM171.844 28.5547L171.891 32.375L168.117 32.375C167.227 32.375 166.453 32.4766 165.797 32.6797C165.141 32.8828 164.602 33.1719 164.18 33.5469C163.758 33.9062 163.445 34.3281 163.242 34.8125C163.055 35.2969 162.961 35.8281 162.961 36.4062C162.961 36.9844 163.094 37.5078 163.359 37.9766C163.625 38.4297 164.008 38.7891 164.508 39.0547C165.008 39.3047 165.594 39.4297 166.266 39.4297C167.281 39.4297 168.164 39.2266 168.914 38.8203C169.664 38.4141 170.242 37.9141 170.648 37.3203C171.07 36.7266 171.289 36.1641 171.305 35.6328L173.086 38.4922C172.836 39.1328 172.492 39.7969 172.055 40.4844C171.633 41.1719 171.094 41.8203 170.438 42.4297C169.781 43.0234 168.992 43.5156 168.07 43.9062C167.148 44.2812 166.055 44.4687 164.789 44.4687C163.18 44.4687 161.719 44.1484 160.406 43.5078C159.109 42.8516 158.078 41.9531 157.313 40.8125C156.563 39.6562 156.188 38.3438 156.188 36.875C156.188 35.5469 156.438 34.3672 156.938 33.3359C157.438 32.3047 158.172 31.4375 159.141 30.7344C160.125 30.0156 161.352 29.4766 162.82 29.1172C164.289 28.7422 165.992 28.5547 167.93 28.5547L171.844 28.5547Z" fill="#717171" style="fill:#717171;fill:color(display-p3 0.4417 0.4417 0.4417);fill-opacity:1;"/>
<path d="M136.969 24.0547L136.969 44L130.219 44L130.219 18.6406L136.547 18.6406L136.969 24.0547ZM135.984 30.4297L134.156 30.4297C134.156 28.5547 134.398 26.8672 134.883 25.3672C135.367 23.8516 136.047 22.5625 136.922 21.5C137.797 20.4219 138.836 19.6016 140.039 19.0391C141.258 18.4609 142.617 18.1719 144.117 18.1719C145.305 18.1719 146.391 18.3437 147.375 18.6875C148.359 19.0312 149.203 19.5781 149.906 20.3281C150.625 21.0781 151.172 22.0703 151.547 23.3047C151.938 24.5391 152.133 26.0469 152.133 27.8281L152.133 44L145.336 44L145.336 27.8047C145.336 26.6797 145.18 25.8047 144.867 25.1797C144.555 24.5547 144.094 24.1172 143.484 23.8672C142.891 23.6016 142.156 23.4687 141.281 23.4687C140.375 23.4687 139.586 23.6484 138.914 24.0078C138.258 24.3672 137.711 24.8672 137.273 25.5078C136.852 26.1328 136.531 26.8672 136.313 27.7109C136.094 28.5547 135.984 29.4609 135.984 30.4297Z" fill="#717171" style="fill:#717171;fill:color(display-p3 0.4417 0.4417 0.4417);fill-opacity:1;"/>
<path d="M113.156 15.7109L103.875 44L96.3984 44L109.078 9.875L113.836 9.875L113.156 15.7109ZM120.867 44L111.563 15.7109L110.812 9.875L115.617 9.875L128.367 44L120.867 44ZM120.445 31.2969L120.445 36.8047L102.422 36.8047L102.422 31.2969L120.445 31.2969Z" fill="#717171" style="fill:#717171;fill:color(display-p3 0.4417 0.4417 0.4417);fill-opacity:1;"/>
<path d="M70.8516 37.4375L76.125 18.6406L80.4141 18.6406L79.0313 26.0234L73.7578 44L70.1719 44L70.8516 37.4375ZM68.1797 18.6406L71.9531 37.4141L72.3047 44L68.0859 44L61.6641 18.6406L68.1797 18.6406ZM85.2422 37.1094L88.9219 18.6406L95.4609 18.6406L89.0391 44L84.8438 44L85.2422 37.1094ZM81 18.6406L86.25 37.2969L86.9766 44L83.3672 44L78.0938 26.0469L76.7578 18.6406L81 18.6406Z" fill="#EC692D" style="fill:#EC692D;fill:color(display-p3 0.9255 0.4118 0.1765);fill-opacity:1;"/>
<path d="M35.4375 31.5781L35.4375 31.0859C35.4375 29.2266 35.7031 27.5156 36.2344 25.9531C36.7656 24.375 37.5391 23.0078 38.5547 21.8516C39.5703 20.6953 40.8203 19.7969 42.3047 19.1562C43.7891 18.5 45.4922 18.1719 47.4141 18.1719C49.3359 18.1719 51.0469 18.5 52.5469 19.1562C54.0469 19.7969 55.3047 20.6953 56.3203 21.8516C57.3516 23.0078 58.1328 24.375 58.6641 25.9531C59.1953 27.5156 59.4609 29.2266 59.4609 31.0859L59.4609 31.5781C59.4609 33.4219 59.1953 35.1328 58.6641 36.7109C58.1328 38.2734 57.3516 39.6406 56.3203 40.8125C55.3047 41.9687 54.0547 42.8672 52.5703 43.5078C51.0859 44.1484 49.3828 44.4687 47.4609 44.4687C45.5391 44.4687 43.8281 44.1484 42.3281 43.5078C40.8438 42.8672 39.5859 41.9687 38.5547 40.8125C37.5391 39.6406 36.7656 38.2734 36.2344 36.7109C35.7031 35.1328 35.4375 33.4219 35.4375 31.5781ZM42.1875 31.0859L42.1875 31.5781C42.1875 32.6406 42.2813 33.6328 42.4688 34.5547C42.6563 35.4766 42.9531 36.2891 43.3594 36.9922C43.7813 37.6797 44.3281 38.2187 45 38.6094C45.6719 39 46.4922 39.1953 47.4609 39.1953C48.3984 39.1953 49.2031 39 49.875 38.6094C50.5469 38.2187 51.0859 37.6797 51.4922 36.9922C51.8984 36.2891 52.1953 35.4766 52.3828 34.5547C52.5859 33.6328 52.6875 32.6406 52.6875 31.5781L52.6875 31.0859C52.6875 30.0547 52.5859 29.0859 52.3828 28.1797C52.1953 27.2578 51.8906 26.4453 51.4688 25.7422C51.0625 25.0234 50.5234 24.4609 49.8516 24.0547C49.1797 23.6484 48.3672 23.4453 47.4141 23.4453C46.4609 23.4453 45.6484 23.6484 44.9766 24.0547C44.3203 24.4609 43.7813 25.0234 43.3594 25.7422C42.9531 26.4453 42.6563 27.2578 42.4688 28.1797C42.2813 29.0859 42.1875 30.0547 42.1875 31.0859Z" fill="#EC692D" style="fill:#EC692D;fill:color(display-p3 0.9255 0.4118 0.1765);fill-opacity:1;"/>
<path d="M30.8203 9.875L30.8203 44L23.7891 44L10.0781 21.125L10.0781 44L3.04688 44L3.04688 9.875L10.0781 9.875L23.8125 32.7734L23.8125 9.875L30.8203 9.875Z" fill="#EC692D" style="fill:#EC692D;fill:color(display-p3 0.9255 0.4118 0.1765);fill-opacity:1;"/>
</svg>
